<svg xmlns="http://www.w3.org/2000/svg" viewBox="0 0 200 120" width="200" height="120" preserveAspectRatio="xMidYMid meet" role="img" aria-label="Ilustración de pasta">
<title>Pasta</title>
<defs>
<style>
.line { fill: none; stroke: #b85b23; stroke-width:4; stroke-linecap:round; stroke-linejoin:round; }
.fill { fill: #f7c28b; }
</style>
</defs>


<!-- base de plato -->
<ellipse cx="100" cy="85" rx="70" ry="18" fill="#fff3e6" stroke="#e5c4a3" stroke-width="2"/>


<!-- monton de espagueti -->
<path class="line" d="M40 70 C55 40, 85 40, 100 70 S145 100, 160 70" />
<path class="line" d="M45 75 C60 50, 90 50, 105 75 S140 105, 155 75" />
<path class="line" d="M50 65 C65 45, 95 45, 110 65 S150 95, 165 65" />


<!-- tenedor (lado izquierdo) -->
<g transform="translate(10,20) rotate(-20 30 30)">
<rect x="62" y="-6" width="6" height="46" rx="2" fill="#d9d9d9" />
<rect x="62" y="-6" width="18" height="6" rx="3" fill="#d9d9d9" transform="translate(-6,14) rotate(0)" />
<rect x="62" y="-2" width="6" height="22" rx="2" fill="#d9d9d9" opacity="0.9"/>
</g>
</svg>